# xmcd CD database file
#
# Track frame offsets:
#	150
#	14509
#	29156
#	40559
#	51440
#	79939
#	92500
#	102073
#	115867
#	127694
#	141018
#	153788
#	176910
#	188501
#	223676
#	259320
#	281411
#
# Disc length: 4031 seconds
#
# Revision: 4
# Processed by: cddbd v1.5.2PL0 Copyright (c) Steve Scherf et al.
# Submitted via: cdripper 1,0,33,916
#
DISCID=e30fbd11
DTITLE=Simply Jazz Greats - Disc 2 - Bop Giants
DYEAR=2008
DGENRE=Jazz
TTITLE0=Charlie Parker - Billie's Bounce
TTITLE1=Dizzy Gillespie - Salt Peanuts
TTITLE2=Stan Getz - Opus De Bob
TTITLE3=Miles Davis - Sippin' At Bells
TTITLE4=Charles Mingus - Tea For Two
TTITLE5=Milt Jackson - Bluesology
TTITLE6=Howard McGhee - Merry Lee
TTITLE7=Dexter Gordon - Long Tall Dexter
TTITLE8=George Shearing - Bop's Your Uncle
TTITLE9=Don Byas - Riffin' And Jivin'
TTITLE10=Fats Navarro - Fats Blows
TTITLE11=Duke Jordan - Night In Tunisia
TTITLE12=Kenny Dorham - Fool's Fancy
TTITLE13=Donald Byrd - Star Eyes
TTITLE14=Lee Morgan - Bet No One Ever Hurt This Bad
TTITLE15=Red Rodney - Ubas
TTITLE16=Hank Jones - Almost Like Being In Love
EXTD=simplyJAZZgreats - CD2 Bop Giants\nSIMPLYCD066-2\n9845824662-2\nunionsquaremusic.co.uk\n-- YEAR: 2008
EXTT0=
EXTT1=
EXTT2=
EXTT3=
EXTT4=
EXTT5=
EXTT6=
EXTT7=
EXTT8=
EXTT9=
EXTT10=
EXTT11=
EXTT12=
EXTT13=
EXTT14=
EXTT15=
EXTT16=
PLAYORDER=
